<svg width="18" height="18" viewBox="0 0 18 18" fill="none" xmlns="http://www.w3.org/2000/svg">
<rect width="18" height="18" fill="white" fill-opacity="0.01"/>
<path fill-rule="evenodd" clip-rule="evenodd" d="M16.0881 5.24577H1.91203V3.73513H4.31181V4.04969C4.31181 4.37069 4.57183 4.63071 4.89283 4.63071C5.21366 4.63071 5.47384 4.37069 5.47384 4.04969V3.73513H12.6151V4.04969C12.6151 4.37069 12.8751 4.63071 13.1961 4.63071C13.5171 4.63071 13.7771 4.37069 13.7771 4.04969V3.73513H16.0881V5.24577ZM1.91203 15.5872H16.0881V6.40763H1.91203V15.5872ZM16.6692 2.5731H13.7771V2.08102C13.7771 1.76002 13.5171 1.5 13.1961 1.5C12.8751 1.5 12.6151 1.76002 12.6151 2.08102V2.5731H5.47384V2.08102C5.47384 1.76002 5.21366 1.5 4.89283 1.5C4.57183 1.5 4.31181 1.76002 4.31181 2.08102V2.5731H1.33102C1.01019 2.5731 0.75 2.83312 0.75 3.15412V16.1682C0.75 16.4892 1.01019 16.7492 1.33102 16.7492H16.6692C16.99 16.7492 17.2502 16.4892 17.2502 16.1682V3.15412C17.2502 2.83312 16.99 2.5731 16.6692 2.5731Z" fill="#121212"/>
<path fill-rule="evenodd" clip-rule="evenodd" d="M4.80416 10.2421H13.1962C13.517 10.2421 13.777 9.98209 13.777 9.66109C13.777 9.34026 13.517 9.08008 13.1962 9.08008H4.80416C4.48316 9.08008 4.22314 9.34026 4.22314 9.66109C4.22314 9.98209 4.48316 10.2421 4.80416 10.2421Z" fill="#121212"/>
<path fill-rule="evenodd" clip-rule="evenodd" d="M4.80416 13.0595H9.00001C9.32101 13.0595 9.58102 12.7995 9.58102 12.4785C9.58102 12.1576 9.32101 11.8975 9.00001 11.8975H4.80416C4.48316 11.8975 4.22314 12.1576 4.22314 12.4785C4.22314 12.7995 4.48316 13.0595 4.80416 13.0595Z" fill="#121212"/>
</svg>
