<svg width="18" height="18" viewBox="0 0 18 18" fill="none" xmlns="http://www.w3.org/2000/svg">
<rect width="18" height="18" fill="white" fill-opacity="0.01"/>
<path fill-rule="evenodd" clip-rule="evenodd" d="M16.0883 5.23942L9.00041 10.1796L1.91235 5.23942V3.41235H16.0883V5.23942ZM16.0877 14.2457L12.0754 9.45185L16.0877 6.65552V14.2457ZM2.5752 15.2644L6.88149 10.1191L8.66791 11.3643C8.76768 11.434 8.88405 11.4687 9.00025 11.4687C9.11629 11.4687 9.23266 11.434 9.33243 11.3643L11.1188 10.1191L15.4251 15.2644H2.5752ZM1.91235 6.65552L5.92458 9.45185L1.91235 14.2457V6.65552ZM16.669 2.25H1.33102C1.01019 2.25 0.75 2.51019 0.75 2.83102V15.8453C0.75 15.8534 0.752202 15.861 0.752541 15.8692C0.753388 15.89 0.75559 15.9105 0.758639 15.9312C0.761349 15.9489 0.764229 15.9666 0.768464 15.9838C0.773037 16.0026 0.779136 16.0206 0.785742 16.0389C0.79184 16.0563 0.798107 16.0736 0.8059 16.0902C0.813861 16.1073 0.823178 16.1236 0.832833 16.14C0.842658 16.1561 0.852313 16.172 0.863324 16.1873C0.874165 16.202 0.886022 16.2159 0.898557 16.2298C0.911939 16.2449 0.925829 16.2594 0.940736 16.273C0.947003 16.2786 0.951577 16.2854 0.958183 16.2908C0.962249 16.2943 0.9675 16.2954 0.971735 16.2987C1.01849 16.3357 1.06998 16.366 1.12656 16.3873C1.13554 16.3907 1.14452 16.3927 1.15349 16.3956C1.20956 16.4138 1.26817 16.4261 1.33017 16.4261H1.33068H1.33085H1.33102H16.669H16.6692H16.6693H16.6698C16.7318 16.4261 16.7905 16.4138 16.8465 16.3956C16.8557 16.3927 16.8645 16.3907 16.8735 16.3873C16.93 16.366 16.9815 16.3357 17.0281 16.2987C17.0325 16.2954 17.0378 16.2943 17.0418 16.2908C17.0484 16.2854 17.0532 16.2786 17.0593 16.273C17.0742 16.2594 17.0881 16.2449 17.1016 16.2298C17.114 16.2159 17.1259 16.202 17.1367 16.1873C17.1477 16.172 17.1574 16.1561 17.1672 16.14C17.1768 16.1236 17.1862 16.1073 17.1941 16.0902C17.2019 16.0736 17.2082 16.0563 17.2143 16.0389C17.2207 16.0206 17.227 16.0026 17.2314 15.9838C17.2358 15.9666 17.2387 15.9489 17.2414 15.9312C17.2444 15.9105 17.2466 15.89 17.2475 15.8692C17.2478 15.861 17.25 15.8534 17.25 15.8453V2.83102C17.25 2.51019 16.99 2.25 16.669 2.25Z" fill="#121212"/>
</svg>
