<svg width="24" height="24" viewBox="0 0 24 24" fill="none" xmlns="http://www.w3.org/2000/svg">
<path fill-rule="evenodd" clip-rule="evenodd" d="M17 19C17 20.103 16.103 21 15 21H9C7.897 21 7 20.103 7 19V5C7 3.897 7.897 3 9 3H15C16.103 3 17 3.897 17 5V19ZM15 1H9C6.794 1 5 2.794 5 5V19C5 21.206 6.794 23 9 23H15C17.206 23 19 21.206 19 19V5C19 2.794 17.206 1 15 1ZM14 3.9668H10C9.447 3.9668 9 4.4138 9 4.9668C9 5.5198 9.447 5.9668 10 5.9668H14C14.553 5.9668 15 5.5198 15 4.9668C15 4.4138 14.553 3.9668 14 3.9668ZM11 19C11 18.448 11.448 18 12 18C12.552 18 13 18.448 13 19C13 19.552 12.552 20 12 20C11.448 20 11 19.552 11 19Z" fill="black"/>
</svg>
