<svg width="18" height="18" viewBox="0 0 18 18" fill="none" xmlns="http://www.w3.org/2000/svg">
<rect width="18" height="18" fill="white" fill-opacity="0.01"/>
<path fill-rule="evenodd" clip-rule="evenodd" d="M8.97436 2.66204C10.7684 2.66204 12.2279 4.12137 12.2279 5.91543C12.2279 7.70948 10.7684 9.16915 8.97436 9.16915C7.18031 9.16915 5.72064 7.70948 5.72064 5.91543C5.72064 4.12137 7.18031 2.66204 8.97436 2.66204ZM8.97436 10.331C11.4092 10.331 13.3898 8.35013 13.3898 5.91543C13.3898 3.48056 11.4092 1.5 8.97436 1.5C6.53949 1.5 4.55859 3.48056 4.55859 5.91543C4.55859 8.35013 6.53949 10.331 8.97436 10.331Z" fill="#121212"/>
<path fill-rule="evenodd" clip-rule="evenodd" d="M6.28851 12.2675H11.7115C13.9278 12.2675 15.7648 13.9235 16.0498 16.0633H1.95033C2.23542 13.9235 4.07216 12.2675 6.28851 12.2675ZM1.33102 17.2252H16.6691C16.9901 17.2252 17.2502 16.965 17.2502 16.6443C17.2502 13.5903 14.7655 11.1055 11.7115 11.1055H6.28851C3.2345 11.1055 0.75 13.5903 0.75 16.6443C0.75 16.965 1.01002 17.2252 1.33102 17.2252Z" fill="#121212"/>
</svg>
