<svg width="61" height="82" viewBox="0 0 61 82" fill="none" xmlns="http://www.w3.org/2000/svg">
<path d="M59.9386 67.087C59.2526 61.329 57.9487 55.663 56.4017 50.081C55.0307 45.13 52.9667 40.31 51.9677 35.262C51.2057 31.413 50.5177 27.548 49.6277 23.725C48.7417 19.922 47.3856 16.294 46.2186 12.574C44.7806 7.99102 42.5667 3.23502 37.7737 1.45602C37.7607 1.45102 37.7547 1.46602 37.7437 1.46802C37.6677 1.43702 37.5966 1.40502 37.5166 1.37602C36.1106 0.869022 34.4697 0.619019 32.5967 0.619019H25.6667C23.7917 2.21302 22.5207 5.92102 21.8527 11.75C21.5827 14.392 21.3816 15.986 21.2496 16.53C16.7636 36.152 9.90165 56.319 0.663651 77.027L0.162659 78.079C0.162659 79.011 0.846657 79.777 2.22066 80.38C3.59266 80.983 5.08265 81.283 6.68965 81.283C7.65865 81.283 8.52566 81.138 9.31366 80.88C18.5287 79.948 22.0337 69.939 23.6837 61.76L38.5217 63.039C40.5307 69.491 41.5357 74.406 41.5357 77.788C41.5357 79.34 42.3377 80.389 43.9447 80.934C45.4697 81.451 47.0717 81.549 48.6697 81.586C50.3697 81.625 52.3807 82.199 54.0877 81.51C55.5707 80.912 56.5257 79.46 57.2767 78.121C59.0017 75.042 60.3646 70.661 59.9386 67.087ZM31.0897 14.549C31.2577 15.617 31.4837 16.963 31.7687 18.579C30.9697 18.99 30.1887 19.442 29.4317 19.914C29.9657 18.177 30.5157 16.396 31.0897 14.549ZM28.9467 21.495C29.9237 20.901 30.9147 20.331 31.9417 19.822C31.9557 19.815 31.9706 19.809 31.9856 19.802C32.0936 20.403 32.2067 21.029 32.3277 21.694C32.1597 21.782 31.9927 21.87 31.8247 21.953C30.6277 22.546 29.4407 23.156 28.2537 23.767C28.4817 23.019 28.7127 22.262 28.9467 21.495ZM27.7077 25.562C29.2757 24.964 30.8337 24.351 32.3577 23.642C32.4566 23.596 32.5607 23.552 32.6597 23.507C32.7567 24.034 32.8577 24.576 32.9627 25.137C31.8627 25.692 30.8587 26.52 29.8177 27.155C28.7587 27.8 27.7027 28.449 26.6437 29.095C26.9877 27.945 27.3437 26.766 27.7077 25.562ZM25.0287 34.546C25.8817 34.185 26.7347 33.824 27.5877 33.463C28.3837 33.126 29.3287 32.891 29.9347 32.259C30.3187 31.859 30.0667 31.047 29.4517 31.092C28.5517 31.158 27.8027 31.692 27.0117 32.102C26.5147 32.36 26.0167 32.618 25.5197 32.877C25.7337 32.153 25.9527 31.415 26.1747 30.667C27.6737 30.163 29.0857 29.61 30.4757 28.849C30.9427 28.594 31.4497 28.336 31.9547 28.061C31.7307 28.726 31.5236 29.381 31.3606 30.013C30.8916 31.843 30.3847 33.661 29.8677 35.475C28.7417 36.083 27.6947 36.859 26.5767 37.487C25.6607 38.001 24.7186 38.46 23.7646 38.897C24.1636 37.507 24.5887 36.047 25.0287 34.546ZM23.5597 39.613C25.6027 38.824 27.7697 37.891 29.5417 36.613C29.2097 37.771 28.8767 38.928 28.5477 40.088C28.2547 41.121 27.9417 42.16 27.6237 43.203C27.5227 43.185 27.4136 43.186 27.2906 43.234C26.2036 43.657 25.2446 44.372 24.1806 44.868C23.4276 45.219 22.6527 45.484 21.8607 45.694C22.3757 43.805 22.9427 41.775 23.5597 39.613ZM18.2377 61.292L21.6757 61.588C20.6517 61.977 19.6886 62.713 18.7516 63.213C18.1896 63.512 17.6197 63.794 17.0507 64.076C17.4127 63.12 17.8057 62.189 18.2377 61.292ZM18.3047 72.975C16.8427 75.656 14.7247 77.646 12.1667 78.958C12.6607 78.366 13.0827 77.672 13.4167 76.853C13.7537 76.05 14.1016 74.969 14.4586 73.631C15.9246 73.383 17.5427 72.97 18.7447 72.145C18.5987 72.421 18.4547 72.699 18.3047 72.975ZM19.2757 71.113C19.2316 71.103 19.1887 71.089 19.1387 71.103C18.1827 71.375 17.3517 71.927 16.4337 72.302C15.8497 72.541 15.2536 72.73 14.6507 72.895C14.8716 72.019 15.0957 71.051 15.3247 69.975C15.4007 69.62 15.4937 69.279 15.5767 68.931C16.6047 68.659 17.6247 68.356 18.6207 67.979C19.5227 67.637 20.7617 67.35 21.3117 66.524C20.7177 68.085 20.0306 69.613 19.2757 71.113ZM21.4736 66.061C21.4586 65.891 21.3716 65.73 21.1806 65.697C20.1196 65.518 19.2796 66.241 18.3316 66.673C17.5317 67.038 16.7147 67.351 15.8887 67.643C16.0237 67.146 16.1707 66.658 16.3227 66.174C17.4447 65.738 18.5327 65.222 19.6147 64.688C20.5357 64.233 21.5627 63.817 22.3947 63.192C22.1207 64.16 21.8206 65.118 21.4736 66.061ZM23.7337 57.826C22.6557 57.687 21.7267 57.539 20.9477 57.38C22.0297 57.21 23.0927 56.938 23.9877 56.46C23.9007 56.915 23.8077 57.37 23.7337 57.826ZM24.0917 54.825C23.0177 54.97 21.9637 55.494 20.9277 55.823C20.3467 56.008 19.7596 56.162 19.1676 56.301C19.4116 55.217 19.6937 54.03 20.0107 52.753C21.9277 52.533 24.2727 51.941 25.3157 50.276C25.5227 49.946 25.1797 49.504 24.8087 49.616C23.9127 49.887 23.1727 50.432 22.3437 50.85C21.6817 51.183 20.9987 51.435 20.2937 51.627C20.6477 50.226 21.0467 48.708 21.4807 47.093C23.3457 46.885 25.4607 46.378 26.9857 45.285C26.0137 48.438 25.0357 51.627 24.3237 54.828C24.2497 54.819 24.1737 54.814 24.0917 54.825ZM24.6096 57.933C27.0886 51.786 28.3987 44.893 30.1057 38.546C31.0947 34.867 32.1126 31.214 33.2356 27.573C33.2706 27.46 33.3177 27.347 33.3557 27.234C34.3977 32.802 35.2007 37.698 35.7597 41.912C36.3277 46.209 36.6127 49.8 36.6127 52.696C36.6127 55.592 36.8137 57.622 37.2157 58.787C31.9197 58.577 27.7236 58.292 24.6096 57.933ZM39.6267 3.64902C39.6267 3.58102 39.6157 3.51601 39.6087 3.45001C40.5487 4.37901 41.4346 5.33602 42.2106 6.41702C41.5686 6.82902 41.0386 7.63701 40.5116 8.09901C40.3126 8.27401 40.0957 8.43102 39.8727 8.58102C39.7097 6.76602 39.6267 5.11902 39.6267 3.64902ZM40.0257 10.116C40.4537 9.83901 40.8597 9.52802 41.2297 9.24202C41.7507 8.84002 42.5377 8.28901 42.9957 7.64201C43.0657 7.76401 43.1446 7.87402 43.2106 7.99902C43.8356 9.18102 44.3187 10.461 44.7307 11.776C43.6787 12.222 42.7417 13.068 41.7857 13.675C41.3867 13.928 40.9887 14.182 40.5907 14.436C40.3627 12.911 40.1736 11.47 40.0257 10.116ZM41.5007 19.607C41.4917 19.613 41.4816 19.618 41.4726 19.623C41.2226 18.273 40.9956 16.971 40.7966 15.727C41.3646 15.454 41.9257 15.165 42.4677 14.843C43.3427 14.322 44.3506 13.805 45.1196 13.095C45.5556 14.658 45.9266 16.238 46.3356 17.747C46.1616 17.545 45.8957 17.418 45.6087 17.497C44.1327 17.902 42.8207 18.849 41.5007 19.607ZM41.7807 21.253C41.9557 21.164 42.1317 21.076 42.3077 20.987C43.6707 20.298 45.1606 19.72 46.3136 18.705C46.4206 18.61 46.4746 18.499 46.5036 18.385C47.1096 20.601 47.6857 22.824 48.2467 25.051C46.4807 25.625 44.7507 26.552 43.0737 27.459C42.5937 25.285 42.1607 23.212 41.7807 21.253ZM43.7937 30.635C43.6277 29.923 43.4697 29.228 43.3147 28.538C45.0956 27.891 46.9457 27.226 48.5577 26.314C49.0577 28.326 49.5356 30.343 50.0166 32.359C48.8046 32.425 47.6086 33.26 46.5336 33.744C45.9176 34.021 45.3017 34.298 44.6867 34.575C44.4057 33.303 44.1097 31.994 43.7937 30.635ZM44.9906 35.973C45.6776 35.727 46.3596 35.469 47.0376 35.183C48.1096 34.731 49.4346 34.364 50.3046 33.555C50.6196 34.884 50.9327 36.213 51.2467 37.542C49.8297 37.523 48.5097 38.443 47.2477 39.032C46.7517 39.264 46.2627 39.509 45.7727 39.75C45.5297 38.535 45.2726 37.285 44.9906 35.973ZM46.1147 41.521C46.6037 41.316 47.0947 41.113 47.5797 40.898C48.8567 40.331 50.5586 39.867 51.5546 38.845C51.9406 40.482 52.3276 42.119 52.7146 43.756C51.3336 44.11 49.9897 45.234 48.8817 46.05C48.2827 46.491 47.7007 46.952 47.1277 47.425C46.8547 45.612 46.5217 43.654 46.1147 41.521ZM47.3147 48.711C48.1977 48.085 49.0956 47.481 50.0286 46.93C50.9916 46.362 52.1516 45.893 53.0686 45.209C53.4796 46.903 53.8967 48.594 54.3087 50.288C54.1657 50.124 53.9477 50.027 53.6936 50.095C52.2257 50.484 50.8946 51.557 49.6207 52.368C49.0217 52.749 48.4307 53.143 47.8367 53.533C47.7307 52.09 47.5617 50.494 47.3147 48.711ZM47.9606 56.398C47.9606 55.908 47.9466 55.383 47.9216 54.833C48.7246 54.417 49.5307 54.005 50.3277 53.577C51.6577 52.864 53.2447 52.229 54.3017 51.14C54.3797 51.059 54.4216 50.968 54.4476 50.874C54.6646 51.774 54.8857 52.674 55.0907 53.577C55.3037 54.517 55.5287 55.456 55.7567 56.395C55.6397 56.315 55.4946 56.273 55.3356 56.311C53.8876 56.662 52.6237 57.527 51.3377 58.255C50.5327 58.711 49.7357 59.182 48.9417 59.656L47.9606 56.398ZM54.0867 78.303V78.254C54.0867 77.086 53.4337 74.621 52.1277 70.852C51.3837 68.702 50.8587 67.023 50.5387 65.783C51.3186 65.429 52.0997 65.075 52.8797 64.72C53.9537 64.232 55.1537 63.835 56.1057 63.142C56.6157 62.77 56.3356 61.884 55.6546 62.071C54.5406 62.376 53.5197 63.03 52.4937 63.553C51.7567 63.928 51.0206 64.304 50.2836 64.679C50.2096 64.289 50.1697 63.972 50.1697 63.741L49.3377 60.975C50.2597 60.506 51.1796 60.034 52.0896 59.543C53.3886 58.842 54.7816 58.23 55.8476 57.192C55.8806 57.16 55.9007 57.124 55.9227 57.089C56.5417 59.639 57.1637 62.192 57.6137 64.77C57.7997 65.838 57.9356 66.852 57.9866 67.856C56.2116 68.853 54.5706 70.077 52.7496 71.019C52.4356 71.182 52.7117 71.646 53.0257 71.491C54.7167 70.658 56.5317 69.745 58.0097 68.523C58.0187 69.694 57.8926 70.864 57.5506 72.102C57.1096 73.706 55.8767 76.701 54.0867 78.303Z" fill="#008DF1"/>
</svg>
