<svg width="52" height="81" viewBox="0 0 52 81" fill="none" xmlns="http://www.w3.org/2000/svg">
<path d="M51.2563 38.6692C51.1393 30.1982 51.7923 21.0322 50.2433 12.6622C48.7503 4.59117 40.9642 0.76416 33.3022 0.76416C32.2302 0.76416 31.0922 1.06416 29.8882 1.66716C28.6822 2.27016 28.0812 3.01617 28.0812 3.91017C28.0812 7.71717 28.5322 13.3802 29.4362 20.8992C30.3402 28.4202 30.7922 33.2852 30.7922 35.5022C30.7922 37.7162 30.6242 38.9982 30.2892 39.3472H22.8593C21.2663 39.3472 19.8152 39.3252 18.4782 39.2862C18.5822 37.7812 18.6653 36.2522 18.7353 34.7152C18.7863 34.6602 18.8442 34.6102 18.8912 34.5522C19.0692 34.3332 18.9922 34.0162 18.7712 33.9172C19.0402 27.3492 18.9452 20.5902 18.1192 14.2422C17.4612 9.19217 14.9642 5.60016 10.7662 3.63516C9.67824 2.46116 8.05324 1.87216 5.88824 1.87216C4.28124 1.87216 2.90823 2.23016 1.77023 2.95016C0.631233 3.66916 0.0632324 4.49416 0.0632324 5.42616L1.46826 32.3542C1.46826 32.8612 1.20026 35.1912 0.66626 39.3482V39.9312C0.86726 40.3212 0.967255 42.3982 0.967255 46.1682L0.364258 64.3542C0.364258 69.3642 0.882234 73.3202 1.92123 76.2132C2.95823 79.1092 4.84924 80.5562 7.59424 80.5562C9.46724 80.5562 10.9082 80.1192 11.9132 79.2452C12.0942 79.0872 12.2413 78.9202 12.3903 78.7542C16.6473 77.2502 18.0913 72.6872 18.2773 68.2162C18.5723 61.1492 18.8072 53.5212 18.3452 46.2582C18.4302 46.1512 18.5142 46.0422 18.5822 45.9222C18.7332 45.6562 18.5653 45.3152 18.2693 45.2662C18.2233 44.6422 18.1833 44.0162 18.1263 43.3992L25.4683 44.0122C26.8073 44.0122 28.0452 43.9332 29.1842 43.7792V43.8962L30.3882 45.0032L30.0883 48.4402V48.9062C30.0883 49.4912 30.0202 51.6272 29.8872 55.3182C29.8192 57.4182 29.7873 59.2832 29.7873 60.9142C29.7193 62.1202 29.7193 63.1862 29.7873 64.1212C29.9193 66.2972 30.1723 68.8692 30.5403 71.8432C30.9073 74.8142 31.6272 77.0572 32.6992 78.5752C33.7692 80.0902 35.1923 80.8472 36.9673 80.8472C38.7403 80.8472 40.3473 80.5262 41.7873 79.8862C41.9803 79.8002 42.1572 79.7142 42.3242 79.6282C42.3732 79.6322 42.4222 79.6362 42.4742 79.6252C48.4202 78.3362 50.3352 72.0902 50.8132 66.7322C51.6412 57.4442 51.3843 47.9752 51.2563 38.6692ZM16.6762 19.6512C15.4272 19.7732 14.3162 20.5642 13.2032 21.1232C12.8262 21.3122 12.4493 21.5022 12.0713 21.6912L12.1712 17.9642C12.7602 17.7582 13.3412 17.5282 13.9212 17.2682C14.7842 16.8822 15.8133 16.4852 16.5923 15.8762C16.6563 17.1612 16.6592 18.4322 16.6762 19.6512ZM16.4612 14.1462C16.4432 14.1492 16.4272 14.1452 16.4082 14.1492C15.2952 14.3942 14.3002 15.1982 13.2792 15.7022C12.9302 15.8742 12.5742 16.0362 12.2202 16.2002L12.3392 11.7932C12.8542 11.5652 13.3722 11.3462 13.8932 11.1342C14.4752 10.8972 15.0912 10.7462 15.6112 10.4172C16.0652 11.5872 16.3172 12.8532 16.4612 14.1462ZM15.0082 9.15117C14.4242 9.24217 13.8762 9.50116 13.3102 9.75316C12.9892 9.89516 12.6862 10.0682 12.3802 10.2342L12.4142 8.98117C12.4142 7.88217 12.2842 6.92316 12.0502 6.07916C13.2192 6.88416 14.2582 7.84417 15.0082 9.15117ZM12.0233 23.4832C12.6053 23.2182 13.1862 22.9532 13.7682 22.6872C14.7042 22.2612 15.8303 21.9222 16.6953 21.3142C16.7233 23.0692 16.7233 24.8232 16.7133 26.5762C15.5103 26.9122 14.3453 27.5282 13.2093 27.9952C12.7633 28.1782 12.3263 28.3792 11.8863 28.5742L12.0233 23.4832ZM16.5332 52.6682C15.6332 52.8852 14.8282 53.3932 13.9962 53.8172C13.4022 54.1202 12.8073 54.4222 12.2133 54.7252V49.4072C13.1873 49.0722 14.1302 48.6672 15.0782 48.2182C15.5282 48.0052 16.0323 47.8002 16.5243 47.5642C16.4953 49.2632 16.5102 50.9662 16.5332 52.6682ZM14.6162 46.8672C13.8222 47.2882 13.0173 47.6812 12.2133 48.0782V42.9032L16.7022 43.2782C16.6432 44.0902 16.6042 44.9052 16.5742 45.7222C15.9002 46.0672 15.2582 46.5272 14.6162 46.8672ZM11.8482 29.9802C12.5402 29.7582 13.2313 29.5322 13.9163 29.2842C14.8103 28.9602 15.7872 28.6872 16.6972 28.3112C16.6762 30.4392 16.6442 32.5662 16.6152 34.6942C15.9002 35.0722 15.1912 35.4802 14.4352 35.7462C13.5402 36.0612 12.6112 36.3022 11.6732 36.4912L11.8482 29.9802ZM11.6112 38.7632L11.6502 37.3192C12.6752 37.2322 13.6832 37.0532 14.7072 36.7342C15.2982 36.5502 15.9592 36.3392 16.5992 36.0742C16.5862 37.1202 16.5702 38.1662 16.5642 39.2122C14.5672 39.1152 12.9102 38.9662 11.6112 38.7632ZM12.2133 56.6002V56.0252C12.9543 55.6982 13.6942 55.3712 14.4352 55.0442C15.1222 54.7402 15.8862 54.4862 16.5522 54.1072C16.5712 55.3402 16.5812 56.5652 16.5892 57.7902C15.8972 58.1212 15.2322 58.5442 14.5892 58.9192C13.8702 59.3382 13.1523 59.7572 12.4333 60.1762L12.2133 56.6002ZM13.4153 76.1802L12.9073 67.9122C13.6703 67.5242 14.4323 67.1352 15.1953 66.7462C15.6933 66.4922 16.2223 66.2592 16.7303 65.9952C16.6653 69.9892 16.0703 74.1012 13.4153 76.1802ZM14.6602 65.8302C14.0562 66.1922 13.4513 66.5542 12.8473 66.9162L12.4973 61.2082C13.4103 60.8132 14.3233 60.4182 15.2353 60.0242C15.6843 59.8302 16.1493 59.6402 16.6063 59.4332C16.6183 60.9082 16.7152 62.7052 16.7332 64.5862C16.0112 64.9352 15.3362 65.4252 14.6602 65.8302ZM43.4283 69.2852C43.4573 69.2762 43.4862 69.2752 43.5162 69.2592C44.7092 68.6582 45.8993 68.0592 47.0663 67.4102C47.5813 67.1242 48.1222 66.8572 48.6462 66.5662C48.5962 67.7162 48.4892 68.8482 48.2962 69.9422C47.6272 70.2912 47.0143 70.7582 46.3593 71.1332C45.4813 71.6362 44.5653 72.0562 43.6273 72.4322C43.5683 71.5002 43.5023 70.4542 43.4283 69.2852ZM40.1533 10.4472C41.0323 10.0842 41.9102 9.72116 42.7892 9.35716C43.6572 8.99816 44.6552 8.80916 45.2112 8.02316C45.3712 7.79616 45.1493 7.54716 44.9243 7.52316C43.9613 7.42116 43.0483 8.13617 42.2043 8.55017C41.5133 8.88917 40.8223 9.22916 40.1302 9.56816C40.0812 7.47316 40.0483 5.50617 40.0363 3.67917C43.9743 4.88317 45.9042 7.87117 46.8822 11.4212C45.4852 11.8372 44.2232 12.7342 42.9342 13.4132C42.0502 13.8782 41.1682 14.3452 40.2852 14.8102C40.2332 13.3022 40.1883 11.8422 40.1533 10.4472ZM40.3463 16.5462C41.2993 16.1642 42.2462 15.7672 43.1882 15.3462C44.4862 14.7662 46.0862 14.2602 47.3282 13.4262C47.5702 14.7852 47.7072 16.1862 47.7982 17.5762C46.5492 18.2952 45.3532 19.1832 44.1372 19.8652C42.9542 20.5282 41.7623 21.1782 40.5623 21.8132C40.4823 19.9962 40.4083 18.2282 40.3463 16.5462ZM40.6143 22.9862C41.9203 22.4732 43.2093 21.9212 44.4683 21.2872C45.5503 20.7422 46.7682 20.2002 47.9012 19.5552C47.9132 19.8512 47.9272 20.1522 47.9362 20.4442C47.9952 22.2622 48.0333 24.0822 48.0803 25.9012C47.9463 25.8192 47.7832 25.7752 47.6022 25.8032C45.8532 26.0762 44.1942 27.2972 42.6382 28.1172C42.0652 28.4192 41.4862 28.7082 40.9092 29.0012C40.8012 26.9242 40.7023 24.9152 40.6143 22.9862ZM40.9912 30.5502C41.6972 30.2582 42.4032 29.9662 43.1042 29.6612C44.7622 28.9402 46.8282 28.2592 48.1082 26.9432C48.1522 28.7402 48.1903 30.5382 48.2263 32.3362C47.1003 32.8732 46.0433 33.6262 44.9543 34.2062C43.7623 34.8412 42.5363 35.3902 41.2913 35.9032C41.1863 34.0752 41.0842 32.2792 40.9912 30.5502ZM41.3712 37.2452C43.6552 36.5702 46.2862 35.6792 48.2672 34.3312C48.2942 35.8272 48.3142 37.3242 48.3352 38.8212C47.4222 39.2802 46.5423 39.8232 45.6653 40.3152C44.3413 41.0572 43.0172 41.8002 41.6932 42.5422C41.5802 40.7352 41.4732 38.9692 41.3712 37.2452ZM42.3293 52.3472C44.4503 51.4432 46.9893 50.1962 48.2133 48.2292C48.4963 47.7752 47.9492 47.3152 47.5182 47.5342C46.4622 48.0712 45.5512 48.9462 44.5762 49.6242C43.8182 50.1512 43.0433 50.6362 42.2473 51.0912C42.1633 49.8102 42.0772 48.4982 41.9872 47.1252C41.9132 46.0032 41.8433 44.9042 41.7743 43.8162C43.3013 43.0432 44.8292 42.2692 46.3572 41.4962C47.0152 41.1632 47.6952 40.8452 48.3612 40.5042C48.3612 40.5312 48.3622 40.5592 48.3622 40.5862C48.4042 44.4422 48.4463 48.2962 48.4933 52.1512C47.7933 52.5832 47.1303 53.0952 46.4243 53.5082C45.1783 54.2372 43.8763 54.8442 42.5283 55.3582C42.4633 54.3852 42.3973 53.3862 42.3293 52.3472ZM42.8303 56.6612C44.1733 56.2242 45.4873 55.7052 46.7523 55.0762C47.3133 54.7972 47.9322 54.5042 48.5202 54.1642C48.5422 55.8162 48.5632 57.4682 48.5892 59.1202C48.0002 59.4842 47.4383 59.9252 46.8383 60.2462C45.7643 60.8202 44.6332 61.2332 43.4572 61.5412C42.6742 61.7462 43.0062 62.9132 43.7892 62.7462C45.0282 62.4832 46.2253 62.0952 47.3773 61.5652C47.7783 61.3802 48.2063 61.1762 48.6233 60.9492C48.6553 62.2692 48.6922 63.6192 48.6823 64.9632C47.9053 65.3652 47.1702 65.8792 46.4302 66.3262C45.3902 66.9532 44.3763 67.6182 43.3633 68.2872C43.1642 65.1722 42.9142 61.3072 42.6122 56.6882C42.6822 56.6882 42.7523 56.6872 42.8303 56.6612ZM43.9302 77.5392C43.9002 76.9142 43.8192 75.5412 43.6892 73.4492C44.9702 73.0792 46.5402 72.5992 47.8392 71.8752C47.1652 74.0872 45.9822 76.0532 43.9302 77.5392Z" fill="#008DF1"/>
</svg>
