<svg width="98" height="86" viewBox="0 0 98 86" fill="none" xmlns="http://www.w3.org/2000/svg">
<path d="M97.4799 20.6151C97.4289 16.9091 97.2119 13.2201 96.5419 9.70312C96.4429 9.18312 96 8.98412 95.569 9.03012C95.348 8.85612 95.0939 8.69012 94.799 8.48512C89.8729 5.06412 85.218 1.04512 78.837 1.04512C74.821 1.04512 69.933 7.02812 64.1759 18.9951C61.631 24.2031 59.289 29.3711 57.147 34.5011C55.317 38.8471 53.579 43.0501 51.921 47.1291C51.321 45.0231 50.178 42.9821 48.936 41.0291C48.993 40.7651 48.8159 40.5511 48.577 40.4721C47.582 38.9421 46.553 37.4671 45.7 36.0711C42.379 30.6321 39.202 25.0981 35.744 19.7441C30.399 11.4671 24.9559 1.99412 14.3979 0.983124C14.1759 0.912124 13.964 0.870117 13.768 0.870117C11.825 0.870117 10.018 1.10312 8.34496 1.56912C6.66996 2.03512 5.83395 2.72612 5.83395 3.63712C5.83395 4.55212 6.23596 5.37611 7.03896 6.11311C7.03896 14.2371 5.98395 26.3961 3.87695 42.6011C1.76795 58.8031 0.712952 70.9651 0.712952 79.0861C0.712952 79.8641 1.34796 80.5341 2.62096 81.0961C3.89096 81.6581 5.53295 81.9411 7.54095 81.9411C9.21495 81.9411 10.493 81.6901 11.424 81.2181C12.9399 80.7281 14.414 79.9211 15.809 79.2301C17.508 78.3881 19.2849 77.3541 20.5829 75.9311C20.8309 75.9561 21.092 75.8411 21.16 75.5481C24.376 61.7001 23.085 47.0651 23.349 32.7261C23.423 32.6611 23.502 32.6001 23.575 32.5351C23.935 32.2131 23.73 31.7421 23.378 31.5771C23.39 31.0781 23.399 30.5781 23.416 30.0791C25.44 34.3241 27.628 39.1431 29.985 44.5521C35.106 56.3061 37.6669 64.0691 37.6669 67.8361C37.6669 69.3921 38.4199 70.6351 39.9259 71.5681C41.4329 72.5001 43.5249 72.9661 46.202 72.9661C46.346 72.9661 46.4939 72.9521 46.644 72.9251C46.705 72.9701 46.7739 73.0041 46.8549 73.0111C55.332 73.6801 61.681 65.7091 65.539 59.0801C65.583 59.0211 65.6369 58.9671 65.6779 58.9061C65.728 58.8321 65.754 58.7561 65.769 58.6821C68.754 53.4861 71.492 48.0831 74.0939 42.6151C74.5409 42.3021 74.988 41.9881 75.418 41.6611C75.636 43.3951 75.903 45.3481 76.227 47.5531C77.231 54.3931 77.733 59.5811 77.733 63.1171L77.6329 78.3871C77.6329 83.3601 79.774 85.8471 84.059 85.8471C86.135 85.8471 87.8079 85.3021 89.0809 84.2161C89.4419 83.9071 89.7449 83.6031 90.004 83.3051C92.463 82.2481 94.14 80.0091 95.058 77.3031C97.256 70.8241 96.64 62.7421 96.948 56.0051C97.31 48.0971 97.4099 40.1691 97.4039 32.2521C97.4009 28.9491 97.499 25.5221 97.49 22.0931C97.563 21.9841 97.641 21.8781 97.707 21.7661C97.952 21.3511 97.795 20.8871 97.4799 20.6151ZM22.101 4.96211C23.329 5.83811 24.378 6.88711 25.34 8.01811C24.767 8.29111 24.207 8.61411 23.621 8.83911C23.115 9.03311 22.608 9.21912 22.097 9.39012C19.983 6.23512 18.184 3.95112 16.703 2.55212C18.594 3.09612 20.413 3.75711 22.101 4.96211ZM16.9819 17.5381C17.6429 18.7031 18.338 19.9901 19.054 21.3481C18.5 21.7011 17.263 22.5191 16.47 23.1171C16.634 21.2971 16.8039 19.4431 16.9819 17.5381ZM16.296 25.0421C17.189 24.7541 18.11 23.9101 18.739 23.5201C19.104 23.2931 19.471 23.0731 19.839 22.8521C20.396 23.9311 20.9709 25.0771 21.5569 26.2601C19.6119 27.6211 17.7089 29.0461 15.8159 30.4761C15.9699 28.7041 16.129 26.9041 16.296 25.0421ZM20.088 75.4091C18.409 75.8891 16.8199 76.7691 15.2789 77.5721C14.6429 77.9031 13.9789 78.2141 13.3139 78.5271C13.3349 78.3471 13.367 78.1741 13.367 77.9801L13.0659 74.4231C13.0659 73.4031 13.081 72.2761 13.11 71.0571C15.695 70.3391 18.391 69.4041 20.453 67.8471C20.325 70.3641 20.198 72.8811 20.088 75.4041C20.087 75.4061 20.088 75.4071 20.088 75.4091ZM20.505 66.7811C20.355 66.6641 20.1649 66.6031 19.9689 66.6691C17.6309 67.4621 15.412 68.7141 13.143 69.7941C13.201 67.8201 13.292 65.6221 13.416 63.1911C16.03 62.2641 18.7379 61.1061 20.8759 59.3881C20.7589 61.8531 20.631 64.3171 20.505 66.7811ZM20.937 58.1091C20.8969 58.1161 20.858 58.1201 20.819 58.1371C18.305 59.2371 15.96 60.6931 13.485 61.8991C13.601 59.7441 13.7389 57.4411 13.9039 54.9491C16.4969 54.0341 19.196 52.8691 21.209 51.1641C21.138 53.4831 21.042 55.7971 20.937 58.1091ZM21.33 46.5921C21.315 47.6551 21.2719 48.7131 21.2449 49.7741C21.1769 49.7711 21.105 49.7821 21.03 49.8131C18.604 50.8211 16.371 52.1871 14.011 53.3401C14.156 51.2101 14.3179 48.9651 14.4969 46.6041C15.7319 46.0111 16.9529 45.3911 18.1389 44.7011C19.1999 44.0841 20.479 43.4741 21.434 42.6161C21.395 43.9381 21.349 45.2561 21.33 46.5921ZM21.4839 40.6771C19.8559 41.0781 18.375 42.4881 16.938 43.3331C16.187 43.7741 15.422 44.1861 14.651 44.5871C14.801 42.6541 14.961 40.6481 15.132 38.5691C17.417 37.1221 19.712 35.6481 21.824 33.9921C21.674 36.2111 21.5659 38.4391 21.4839 40.6771ZM21.95 32.1071C19.629 33.4771 17.431 35.1281 15.276 36.8141C15.413 35.1701 15.5539 33.4981 15.7039 31.7661C17.8659 30.3561 20.032 28.9391 22.145 27.4521C22.207 27.5791 22.266 27.6951 22.328 27.8231C22.183 29.2511 22.06 30.6781 21.95 32.1071ZM22.7579 10.3871C23.9889 10.1581 25.256 9.77312 26.216 9.09712C26.905 9.98412 27.559 10.9031 28.213 11.8221C28.56 12.3081 28.8899 12.8061 29.2299 13.2981C28.3559 13.4171 27.494 13.9011 26.69 14.2161C26.278 14.3771 25.866 14.5381 25.453 14.7001C24.508 13.1301 23.608 11.6881 22.7579 10.3871ZM25.9469 15.5221C26.3639 15.3961 26.782 15.2711 27.199 15.1461C28.091 14.8781 29.073 14.7111 29.83 14.1671C30.675 15.4101 31.496 16.6691 32.31 17.9341C31.619 18.2931 30.955 18.7331 30.28 19.0921C29.703 19.4001 29.1149 19.6841 28.5249 19.9611C27.6309 18.3841 26.7709 16.9041 25.9469 15.5221ZM31.241 24.8531C30.469 23.4341 29.726 22.0971 29 20.8071C29.445 20.6281 29.8909 20.4521 30.3289 20.2561C31.1829 19.8761 32.143 19.4871 32.965 18.9551C33.957 20.5151 34.9249 22.0901 35.894 23.6641C34.996 24.1151 34.166 24.7241 33.253 25.1491C32.754 25.3821 32.244 25.5761 31.729 25.7541C31.565 25.4521 31.408 25.1591 31.241 24.8531ZM35.7469 33.2681C36.3579 33.0351 36.9699 32.8021 37.5809 32.5681C38.3679 32.2681 39.3469 32.0881 39.9039 31.4281C40.2929 30.9671 40.033 30.3011 39.421 30.2611C38.553 30.2051 37.748 30.7821 36.981 31.1441C36.353 31.4411 35.725 31.7381 35.097 32.0351C34.228 30.3951 33.32 28.6961 32.365 26.9301C33.927 26.4391 35.467 25.7201 36.522 24.6751C36.641 24.8691 36.764 25.0621 36.8829 25.2561C38.7719 28.3401 40.63 31.4431 42.476 34.5531C41.795 34.9401 41.168 35.4881 40.511 35.8751C39.635 36.3921 38.741 36.8401 37.813 37.2331C37.156 35.9551 36.4679 34.6361 35.7469 33.2681ZM38.475 38.5211C39.412 38.2521 40.3349 37.9161 41.1969 37.4671C41.8939 37.1041 42.742 36.6581 43.379 36.0711C43.719 36.6471 44.064 37.2201 44.403 37.7961C45.097 38.9731 45.7489 40.2391 46.4019 41.5251C45.5489 42.1601 44.748 42.8951 43.914 43.5041C43.195 44.0281 42.46 44.5271 41.712 45.0061C40.738 42.9991 39.664 40.8451 38.475 38.5211ZM42.3159 46.2691C43.2959 45.7071 44.261 45.1221 45.196 44.4841C45.849 44.0391 46.544 43.5771 47.183 43.0581C47.977 44.6121 48.8009 46.1551 49.7189 47.5891C48.7489 47.8901 47.907 48.6771 47.041 49.1841C46.156 49.7021 45.2409 50.1521 44.3029 50.5571C43.7059 49.2221 43.0479 47.8011 42.3159 46.2691ZM47.308 58.0471C46.758 56.3651 45.941 54.2921 44.881 51.8591C45.8009 51.4931 46.7029 51.0851 47.5789 50.6171C48.5449 50.1011 49.78 49.5651 50.442 48.6461C50.625 48.9031 50.8 49.1701 50.992 49.4161C49.131 54.0141 47.902 56.8991 47.308 58.0471ZM48.886 71.7331C50.499 70.4001 52.369 67.9581 54.485 64.4521C56.558 63.8911 58.603 63.2101 60.552 62.3011C60.892 62.1431 61.252 61.9781 61.616 61.8081C58.497 66.4511 54.559 70.2721 48.886 71.7331ZM63.735 58.3341C62.427 58.9141 61.194 59.8761 59.955 60.5121C58.548 61.2341 57.116 61.8821 55.651 62.4571C56.404 61.1271 57.188 59.6641 58 58.0821C60.596 56.9501 63.475 55.6541 65.978 54.0341C65.2619 55.4801 64.526 56.9251 63.735 58.3341ZM67.455 50.9951C65.896 51.9741 64.414 53.1491 62.86 54.0831C61.572 54.8581 60.2549 55.5761 58.9189 56.2591C60.0089 54.0681 61.148 51.6601 62.338 49.0381C65.028 47.8261 67.7339 46.5031 70.3069 45.0171C69.3589 47.0111 68.413 49.0051 67.455 50.9951ZM71.576 42.3631C68.737 43.8731 65.944 45.5371 63.166 47.1891C63.912 45.5141 64.681 43.7431 65.465 41.9061C68.155 40.5891 71.077 39.3571 73.7339 37.8641C73.0139 39.3631 72.292 40.8621 71.576 42.3631ZM74.7789 35.2791C71.9549 36.3661 69.2039 37.9451 66.506 39.4431C67.1899 37.8111 67.8829 36.1391 68.5959 34.3841C68.7619 33.9731 68.9209 33.5811 69.0809 33.1851C70.9829 32.5351 72.8579 31.8221 74.7 30.9961C74.727 30.9841 74.754 30.9721 74.781 30.9601C74.746 31.9401 74.722 32.8801 74.722 33.7401C74.722 34.1691 74.7449 34.7001 74.7789 35.2791ZM75.123 25.2611C75.022 26.5041 74.946 27.6601 74.8829 28.7711C74.8319 28.7961 74.781 28.8231 74.729 28.8481C73.162 29.5931 71.574 30.2991 69.975 30.9811C70.804 28.9411 71.54 27.1421 72.188 25.5711C73.141 25.0281 74.0939 24.4851 75.047 23.9421C75.1079 23.9071 75.173 23.8731 75.2339 23.8391C75.1989 24.2961 75.163 24.7661 75.123 25.2611ZM75.343 22.2791C75.034 22.4781 74.726 22.6751 74.418 22.8661C73.921 23.1741 73.423 23.4821 72.9259 23.7901C74.3209 20.4431 75.1889 18.4721 75.5249 17.8881C75.5239 18.9791 75.463 20.4491 75.343 22.2791ZM89.4859 6.59811C90.5309 7.18511 91.3359 7.98312 92.2229 8.76712C92.7529 9.23612 94.474 10.2161 94.668 10.8371C94.672 11.9851 94.685 13.1341 94.692 14.2831C92.009 15.6641 89.481 17.5151 86.931 19.2411C86.586 13.4941 86.397 8.76911 86.373 5.11711C87.426 5.57611 88.4799 6.03311 89.4859 6.59811ZM87.02 20.7151C89.666 19.3861 92.409 17.9581 94.705 16.1611C94.719 18.0481 94.728 19.9351 94.744 21.8221C93.79 22.6721 92.891 23.6251 91.946 24.4301C90.529 25.6361 89.042 26.7321 87.503 27.7661C87.319 25.2691 87.159 22.9211 87.02 20.7151ZM87.675 30.0701C87.661 29.8781 87.6469 29.6931 87.6329 29.5031C89.5679 28.4881 91.4509 27.3661 93.2079 26.0641C93.7109 25.6911 94.245 25.2931 94.772 24.8731C94.784 26.2431 94.797 27.6141 94.808 28.9841C93.657 29.8211 92.5929 30.8241 91.448 31.6491C90.318 32.4631 89.148 33.2121 87.959 33.9351C87.87 32.6861 87.777 31.4081 87.675 30.0701ZM88 34.5011C90.266 33.4381 92.7979 32.2111 94.8219 30.6411C94.8339 32.1721 94.8509 33.7021 94.8589 35.2331C93.5429 36.3051 92.382 37.7561 91.224 38.8681C90.316 39.7401 89.394 40.5951 88.459 41.4371C88.33 39.3011 88.176 36.9781 88 34.5011ZM90.935 80.4761C90.825 79.7711 90.5429 79.0941 90.0849 78.4461L89.713 76.2901C90.5219 75.5971 91.33 74.9051 92.138 74.2121C92.774 73.6671 93.5089 73.1351 94.1389 72.5331C93.7719 75.6081 92.9389 78.5171 90.935 80.4761ZM94.5229 63.9161C94.4409 65.8671 94.467 68.1321 94.328 70.4051C94.208 70.4031 94.086 70.4171 93.97 70.4701C92.824 70.9981 91.863 72.1611 90.929 73.0041C90.418 73.4651 89.907 73.9261 89.395 74.3871C89.02 72.0901 88.76 70.3571 88.615 69.1751C89.599 68.3081 90.591 67.4491 91.554 66.5591C92.55 65.6401 93.7589 64.7341 94.465 63.5671C94.503 63.5031 94.521 63.4401 94.5399 63.3761C94.534 63.5571 94.531 63.7371 94.5229 63.9161ZM94.5549 62.9951C94.4359 62.5301 93.868 62.2081 93.371 62.4721C92.169 63.1131 91.197 64.2891 90.227 65.2321C89.641 65.8011 89.0739 66.3891 88.5009 66.9721L88.8699 57.7331C90.0379 56.9771 91.205 56.2211 92.373 55.4661C93.178 54.9451 94.07 54.4721 94.78 53.8211C94.737 56.8801 94.6719 59.9391 94.5549 62.9951ZM94.86 46.1131C94.844 48.1131 94.825 50.1131 94.802 52.1141C94.706 52.0971 94.609 52.0921 94.513 52.1191C93.324 52.4451 92.3049 53.4191 91.3179 54.1331C90.5269 54.7041 89.737 55.2761 88.946 55.8471L88.9819 54.9561C88.9819 53.4791 88.9449 51.7371 88.8739 49.7481L91.7189 47.8601C92.7079 47.2041 93.8699 46.5881 94.8609 45.8341C94.8599 45.9271 94.861 46.0201 94.86 46.1131ZM91.02 46.6651C90.285 47.1981 89.55 47.7311 88.815 48.2641C88.751 46.7261 88.665 45.0391 88.563 43.2321C89.761 42.2781 90.949 41.3111 92.112 40.3121C92.95 39.5921 93.946 38.8301 94.862 38.0001C94.867 39.9941 94.873 41.9871 94.864 43.9811C93.475 44.6371 92.238 45.7811 91.02 46.6651Z" fill="#008DF1"/>
</svg>
