<svg width="45" height="80" viewBox="0 0 45 80" fill="none" xmlns="http://www.w3.org/2000/svg">
<path d="M38.5775 1.98015L35.2635 2.03815L7.34647 0.931152C5.94047 0.931152 4.50047 1.17315 3.02747 1.65915C1.55447 2.14515 0.819458 2.75714 0.819458 3.49414C0.819458 5.74914 6.37446 6.93415 17.4875 7.05115H18.2914C18.4254 10.8201 19.3115 21.1731 20.9525 38.1151C22.5925 55.0571 23.6795 64.0321 24.2165 65.0431C24.0155 67.7231 23.9145 69.0831 23.9145 69.1211L24.3165 78.2742L28.1324 79.8472C29.8714 79.8472 31.4784 79.4892 32.9514 78.7691C32.9694 78.7601 32.9835 78.7522 33.0005 78.7431C38.5025 77.4121 40.6165 72.2341 41.3365 66.3941C41.4885 66.2532 41.6465 66.1171 41.7865 65.9651C42.0005 65.7331 41.7935 65.2371 41.4485 65.3761C41.9755 59.8721 41.3925 53.9521 41.3115 50.1931C41.0065 36.0651 39.6585 21.8932 37.0294 8.00015L38.1725 8.09915C39.9125 8.09915 41.4865 7.79915 42.8914 7.19615C44.2985 6.59315 45.0005 5.80615 45.0005 4.83315C45.0035 2.93315 42.8615 1.98015 38.5775 1.98015ZM28.3344 8.50815L28.7365 7.28514L34.6144 7.79315C34.7194 8.62315 34.8165 9.45415 34.9195 10.2841C32.7285 10.9401 30.5495 12.0192 28.4495 13.0262C28.3735 11.3952 28.3344 9.88815 28.3344 8.50815ZM28.5475 14.8602C30.7405 14.0492 33.0805 13.2592 35.1525 12.1832C35.3225 13.5732 35.4814 14.9631 35.6454 16.3531C35.5744 16.3181 35.5055 16.2801 35.4155 16.2771C33.9115 16.2251 32.4085 17.2161 31.0515 17.7841C30.3095 18.0951 29.5715 18.4142 28.8325 18.7332C28.7205 17.3872 28.6205 16.0802 28.5475 14.8602ZM28.9525 20.1471C29.9095 19.8591 30.8614 19.5552 31.8004 19.2092C33.1284 18.7202 34.7754 18.3591 35.7574 17.2991C35.9444 18.9001 36.1225 20.5021 36.2985 22.1041C34.7715 22.3301 33.4045 23.1312 32.0005 23.7612C31.1435 24.1452 30.2875 24.5302 29.4305 24.9142C29.2485 23.2522 29.0895 21.6611 28.9525 20.1471ZM29.5984 26.3951C30.5935 25.9781 31.5885 25.5611 32.5835 25.1441C33.8805 24.6001 35.2854 24.1531 36.4384 23.3411C36.6444 25.2391 36.8385 27.1381 37.0255 29.0381C36.8695 28.7511 36.5565 28.5551 36.1985 28.6821C34.7565 29.1961 33.4785 30.1551 32.1355 30.8891C31.5205 31.2251 30.8964 31.5441 30.2704 31.8591C30.0254 29.9701 29.7964 28.1321 29.5984 26.3951ZM35.1575 75.5762C35.1415 73.8102 35.0644 71.8432 34.9305 69.6922C36.1474 69.2912 37.4165 68.8271 38.6055 68.2341C38.1385 70.9981 37.1585 73.5302 35.1575 75.5762ZM38.8145 66.6871C37.5165 67.4032 36.2375 68.1581 34.8725 68.7681C34.7705 67.2621 34.6405 65.6681 34.4845 63.9871C36.0505 63.5721 37.8574 62.9402 38.9984 61.8172C39.0114 63.4702 38.9775 65.1071 38.8145 66.6871ZM38.9675 59.8062C38.9705 59.9632 38.9735 60.1202 38.9765 60.2782C38.9195 60.2752 38.8624 60.2791 38.8044 60.2941C37.9044 60.5341 37.0905 61.1171 36.2685 61.5471C35.6415 61.8751 34.9905 62.1351 34.3285 62.3681C34.1995 61.0721 34.0595 59.7402 33.9005 58.3452C34.8095 58.0232 35.7014 57.6601 36.5634 57.2262C37.3084 56.8512 38.3715 56.4471 38.8405 55.7161C38.8875 57.0801 38.9385 58.4422 38.9675 59.8062ZM38.8224 55.1751C38.7754 55.1421 38.7185 55.1202 38.6505 55.1252C37.8204 55.1872 37.1125 55.8291 36.3835 56.2061C35.5415 56.6401 34.6685 56.9971 33.7775 57.3131C33.5345 55.2431 33.2655 53.0882 32.9585 50.8082C33.0465 50.9022 33.1845 50.9511 33.3335 50.8781C35.0145 50.0461 36.9354 49.3121 38.5074 48.2571C38.6344 50.5621 38.7365 52.8681 38.8224 55.1751ZM37.0844 29.6561C37.4644 33.5541 37.7955 37.4581 38.0705 41.3701C37.4095 41.7341 36.7685 42.1431 36.1055 42.4971C34.9795 43.0991 33.8285 43.6492 32.6605 44.1642C32.3205 44.3142 32.5654 44.9072 32.9164 44.7711C34.6104 44.1131 36.5215 43.4381 38.1544 42.4791C38.1554 42.4901 38.1565 42.5011 38.1575 42.5121C38.2665 44.1311 38.3655 45.7501 38.4585 47.3691C36.5595 48.0721 34.7745 49.3432 33.0175 50.3382C32.9675 50.3661 32.9344 50.4011 32.9084 50.4391C32.5614 47.8801 32.1765 45.1941 31.7495 42.3721C31.5875 41.3051 31.4345 40.2661 31.2855 39.2401C32.0885 38.9981 32.8864 38.7401 33.6704 38.4401C34.6664 38.0581 35.8125 37.7212 36.5525 36.9272C37.0725 36.3702 36.5435 35.6011 35.8495 35.7191C34.8455 35.8901 33.9705 36.5602 33.0695 37.0152C32.4215 37.3422 31.7605 37.6391 31.0945 37.9231C30.8805 36.4231 30.6785 34.9641 30.4885 33.5461C32.7855 32.5971 35.2285 31.5041 36.9195 29.9231C37.0035 29.8451 37.0514 29.7521 37.0844 29.6561Z" fill="#008DF1"/>
</svg>
