<svg width="18" height="18" viewBox="0 0 18 18" fill="none" xmlns="http://www.w3.org/2000/svg">
<rect y="0.00177002" width="18" height="18" fill="white" fill-opacity="0.01"/>
<path fill-rule="evenodd" clip-rule="evenodd" d="M14.2674 10.524H1.91016V4.60721H15.8841L14.2674 10.524ZM3.19524 14.3093C3.39244 14.1119 3.65442 14.0034 3.93331 14.0034C4.21254 14.0034 4.47451 14.1119 4.67172 14.3095C4.86892 14.5067 4.97767 14.7687 4.97767 15.0477C4.97767 15.3264 4.86892 15.5886 4.67172 15.786C4.27748 16.1799 3.58964 16.1802 3.19507 15.786C2.78798 15.3789 2.78798 14.7164 3.19524 14.3093ZM9.76955 14.3093C9.96692 14.1119 10.2291 14.0034 10.5078 14.0034C10.7868 14.0034 11.049 14.1119 11.246 14.3095C11.4432 14.5067 11.552 14.7687 11.552 15.0477C11.552 15.3264 11.4432 15.5886 11.246 15.786C10.8521 16.1802 10.1641 16.1807 9.76955 15.786C9.36263 15.3789 9.36263 14.7164 9.76955 14.3093ZM17.1051 3.67507C16.9952 3.53148 16.8249 3.44692 16.6439 3.44692H1.91004V1.33182C1.91004 1.01132 1.65043 0.751709 1.32994 0.751709C1.00961 0.751709 0.75 1.01132 0.75 1.33182V4.02703V11.104V13.3974C0.75 13.7178 1.00961 13.9775 1.32994 13.9775H2.01778C1.55014 14.8163 1.66295 15.8943 2.37497 16.6062C2.79137 17.0226 3.34475 17.2518 3.93348 17.2518C4.52238 17.2518 5.07594 17.0226 5.49216 16.6064C5.90872 16.19 6.13789 15.6364 6.13789 15.0477C6.13789 14.6653 6.03218 14.3022 5.8502 13.9775H8.59209C8.12479 14.8163 8.23743 15.8943 8.94912 16.6064C9.36585 17.0226 9.91906 17.2518 10.5078 17.2518C11.0965 17.2518 11.6502 17.0226 12.0663 16.6064C12.4829 16.19 12.7122 15.6364 12.7122 15.0477C12.7122 14.6653 12.6063 14.3022 12.4245 13.9775H13.1766C13.4969 13.9775 13.7567 13.7178 13.7567 13.3974C13.7567 13.077 13.4969 12.8174 13.1766 12.8174H1.91004V11.6841H14.7103C14.9717 11.6841 15.2009 11.5092 15.2701 11.2569L17.2035 4.18009C17.2512 4.00555 17.2145 3.81883 17.1051 3.67507Z" fill="#121212"/>
</svg>
