<svg width="32" height="32" viewBox="0 0 32 32" fill="none" xmlns="http://www.w3.org/2000/svg">
<g clip-path="url(#clip0_316_104770)">
<rect width="32" height="32" rx="8" fill="white"/>
<path fill-rule="evenodd" clip-rule="evenodd" d="M17.0922 25.8039C17.0922 29.2259 14.3182 32 10.8962 32H1.76615C0.790448 32 0 31.2091 0 30.2337V1.76614C0 0.79057 0.790572 0 1.76615 0H30.234C31.2093 0 32 0.79057 32 1.76614V30.2337C32 31.2092 31.2092 32 30.234 32H28.2756C24.8536 32 22.0795 29.2259 22.0795 25.8039V21.8211C22.0795 20.5988 23.0705 19.6078 24.2928 19.6078C25.4058 19.6078 26.3456 18.7814 26.4879 17.6776L26.5364 17.3022C26.709 15.9639 25.6666 14.7784 24.3171 14.7784C23.0813 14.7784 22.0795 13.7766 22.0795 12.5408V11.6951C22.0795 10.2969 22.4678 9.344 24.4729 9.344L24.7279 9.34389C25.9996 9.34334 27.0302 8.31225 27.0302 7.04054C27.0302 5.88587 26.1729 4.92358 25.0194 4.87208C24.5005 4.84891 23.9171 4.83305 23.3037 4.83305C19.6166 4.83305 17.0922 7.08368 17.0922 11.2168V12.6933C17.0922 13.8449 16.1587 14.7784 15.0072 14.7784C13.8556 14.7784 12.9221 15.7119 12.9221 16.8635V17.5228C12.9221 18.6743 13.8556 19.6078 15.0072 19.6078C16.1587 19.6078 17.0922 20.5414 17.0922 21.6929V25.8039Z" fill="#4460A0"/>
</g>
<defs>
<clipPath id="clip0_316_104770">
<rect width="32" height="32" rx="8" fill="white"/>
</clipPath>
</defs>
</svg>
