<svg width="41" height="41" viewBox="0 0 41 41" fill="none" xmlns="http://www.w3.org/2000/svg">
<g id="Icon" clip-path="url(#clip0_4_229)">
<path id="Vector" d="M36.8164 5.55029C37.3893 4.97738 38.0664 4.86019 38.8477 5.19873C39.6289 5.53727 40.0195 6.12321 40.0195 6.95654V23.519C40.0195 24.3524 39.6289 24.9513 38.8477 25.3159C38.5872 25.368 38.3268 25.394 38.0664 25.394C37.5456 25.394 37.1029 25.2118 36.7383 24.8472L28.7695 17.269V22.894C28.7695 23.8836 28.418 24.73 27.7148 25.4331C27.0117 26.1362 26.1654 26.4878 25.1758 26.4878H15.957L20.7227 36.7222C20.8789 37.1388 20.7487 37.4513 20.332 37.6597C20.2279 37.7118 20.1237 37.7378 20.0195 37.7378C19.7591 37.7378 19.5508 37.6076 19.3945 37.3472L14.8633 27.5034L10.2539 37.3472C10.1497 37.6076 9.94141 37.7378 9.62891 37.7378C9.52474 37.7378 9.42057 37.7118 9.31641 37.6597C8.89974 37.4513 8.79557 37.1388 9.00391 36.7222L13.7695 26.4878H3.37891C2.44141 26.4878 1.64714 26.1623 0.996094 25.5112C0.345052 24.8602 0.0195312 24.0659 0.0195312 23.1284V6.80029C0.0195312 5.86279 0.358073 5.0555 1.03516 4.37842C1.71224 3.70134 2.51953 3.36279 3.45703 3.36279H25.332C26.2695 3.36279 27.0768 3.70134 27.7539 4.37842C28.431 5.0555 28.7695 5.86279 28.7695 6.80029V12.9722L36.8164 5.55029ZM27.3633 22.894V6.80029C27.3633 6.22738 27.168 5.74561 26.7773 5.35498C26.3867 4.96436 25.9049 4.76904 25.332 4.76904H3.45703C2.88411 4.76904 2.40234 4.96436 2.01172 5.35498C1.62109 5.74561 1.42578 6.22738 1.42578 6.80029V23.1284C1.42578 23.493 1.51693 23.8315 1.69922 24.144C1.88151 24.4565 2.11589 24.6909 2.40234 24.8472C2.6888 25.0034 3.01432 25.0815 3.37891 25.0815H14.7852H14.8633H25.1758C25.8008 25.0815 26.3216 24.8732 26.7383 24.4565C27.1549 24.0399 27.3633 23.519 27.3633 22.894ZM38.6133 23.519V6.95654C38.6133 6.74821 38.5091 6.59196 38.3008 6.48779C38.2487 6.48779 38.1706 6.48779 38.0664 6.48779C37.9622 6.48779 37.8581 6.51383 37.7539 6.56592L28.9258 14.6909C28.8216 14.7951 28.7695 14.9253 28.7695 15.0815C28.7695 15.2378 28.8216 15.368 28.9258 15.4722L37.7539 23.8315C37.9102 24.0399 38.0924 24.092 38.3008 23.9878C38.5091 23.8836 38.6133 23.7274 38.6133 23.519ZM12.7539 14.3784L13.8477 15.4722C14.1602 15.8368 14.1602 16.1753 13.8477 16.4878C13.6914 16.644 13.5221 16.7222 13.3398 16.7222C13.1576 16.7222 12.9883 16.644 12.832 16.4878L11.8945 15.4722C11.0091 16.3055 9.96745 16.7222 8.76953 16.7222C7.51953 16.7222 6.45182 16.2664 5.56641 15.355C4.68099 14.4435 4.23828 13.3628 4.23828 12.1128C4.23828 10.8628 4.68099 9.79508 5.56641 8.90967C6.45182 8.02425 7.51953 7.58154 8.76953 7.58154C10.0195 7.58154 11.1003 8.02425 12.0117 8.90967C12.9232 9.79508 13.3789 10.8628 13.3789 12.1128C13.3789 12.9461 13.1706 13.7013 12.7539 14.3784ZM8.76953 15.3159C9.55078 15.3159 10.2539 15.0295 10.8789 14.4565L9.31641 12.9722C9.00391 12.6597 9.01693 12.3341 9.35547 11.9956C9.69401 11.6571 10.0195 11.644 10.332 11.9565L11.7383 13.3628C11.8945 12.9461 11.9727 12.5295 11.9727 12.1128C11.9727 11.2274 11.6602 10.4852 11.0352 9.88623C10.4102 9.28727 9.66797 8.98779 8.80859 8.98779C7.94922 8.98779 7.20703 9.28727 6.58203 9.88623C5.95703 10.4852 5.64453 11.2274 5.64453 12.1128C5.64453 12.9982 5.95703 13.7534 6.58203 14.3784C7.20703 15.0034 7.9362 15.3159 8.76953 15.3159Z" fill="#20AD96"/>
</g>
<defs>
<clipPath id="clip0_4_229">
<rect width="40" height="40" fill="white" transform="matrix(1 0 0 -1 0.0195312 40.5503)"/>
</clipPath>
</defs>
</svg>
