<svg width="41" height="41" viewBox="0 0 41 41" fill="none" xmlns="http://www.w3.org/2000/svg">
<g id="Icon" clip-path="url(#clip0_4_235)">
<path id="Vector" d="M31.1914 17.1909L38.2227 27.5034C38.3789 27.7118 38.3919 27.9331 38.2617 28.1675C38.1315 28.4019 37.9362 28.519 37.6758 28.519H12.9883C12.1029 28.519 11.3346 28.1935 10.6836 27.5425C10.0326 26.8914 9.70703 26.1232 9.70703 25.2378C9.70703 24.5086 9.91536 23.8315 10.332 23.2065H2.98828V39.8472C2.98828 40.3159 2.76693 40.5503 2.32422 40.5503C1.88151 40.5503 1.66016 40.3159 1.66016 39.8472V22.5815V3.20654V1.25342C1.66016 0.784668 1.88151 0.550293 2.32422 0.550293C2.76693 0.550293 2.98828 0.784668 2.98828 1.25342V2.58154H17.0508C17.4674 2.58154 17.6758 2.78988 17.6758 3.20654V5.86279H37.6758C37.9362 5.86279 38.1315 5.97998 38.2617 6.21436C38.3919 6.44873 38.3789 6.69613 38.2227 6.95654L31.1914 17.1909ZM2.98828 3.90967V21.8784H12.9883H16.3477V6.56592V3.90967H2.98828ZM12.9883 27.1909H36.4258L29.7852 17.5815C29.6289 17.3211 29.6289 17.0868 29.7852 16.8784L36.4258 7.19092H17.6758V22.5815C17.6758 22.9982 17.4674 23.2065 17.0508 23.2065H12.9883C12.4674 23.2065 12.0117 23.4019 11.6211 23.7925C11.2305 24.1831 11.0352 24.6519 11.0352 25.1987C11.0352 25.7456 11.2305 26.2144 11.6211 26.605C12.0117 26.9956 12.4674 27.1909 12.9883 27.1909Z" fill="#20AD96"/>
</g>
<defs>
<clipPath id="clip0_4_235">
<rect width="40" height="40" fill="white" transform="matrix(1 0 0 -1 0.0195312 40.5503)"/>
</clipPath>
</defs>
</svg>
