<svg width="32" height="32" viewBox="0 0 32 32" fill="none" xmlns="http://www.w3.org/2000/svg">
<path d="M25.1429 0H6.85714C3.07005 0 0 3.07005 0 6.85714V25.1429C0 28.93 3.07005 32 6.85714 32H25.1429C28.93 32 32 28.93 32 25.1429V6.85714C32 3.07005 28.93 0 25.1429 0Z" fill="url(#paint0_radial_316_104763)"/>
<path d="M25.1429 0H6.85714C3.07005 0 0 3.07005 0 6.85714V25.1429C0 28.93 3.07005 32 6.85714 32H25.1429C28.93 32 32 28.93 32 25.1429V6.85714C32 3.07005 28.93 0 25.1429 0Z" fill="url(#paint1_radial_316_104763)"/>
<path d="M25.1429 0H6.85714C3.07005 0 0 3.07005 0 6.85714V25.1429C0 28.93 3.07005 32 6.85714 32H25.1429C28.93 32 32 28.93 32 25.1429V6.85714C32 3.07005 28.93 0 25.1429 0Z" fill="url(#paint2_radial_316_104763)"/>
<path d="M23.9999 9.71429C23.9999 10.661 23.2323 11.4286 22.2856 11.4286C21.3388 11.4286 20.5713 10.661 20.5713 9.71429C20.5713 8.76751 21.3388 8 22.2856 8C23.2323 8 23.9999 8.76751 23.9999 9.71429Z" fill="white"/>
<path fill-rule="evenodd" clip-rule="evenodd" d="M16.0004 21.7142C19.1563 21.7142 21.7147 19.1558 21.7147 15.9999C21.7147 12.844 19.1563 10.2856 16.0004 10.2856C12.8445 10.2856 10.2861 12.844 10.2861 15.9999C10.2861 19.1558 12.8445 21.7142 16.0004 21.7142ZM16.0004 19.4285C17.894 19.4285 19.429 17.8935 19.429 15.9999C19.429 14.1063 17.894 12.5714 16.0004 12.5714C14.1068 12.5714 12.5718 14.1063 12.5718 15.9999C12.5718 17.8935 14.1068 19.4285 16.0004 19.4285Z" fill="white"/>
<path fill-rule="evenodd" clip-rule="evenodd" d="M4.57129 15.5427C4.57129 11.7024 4.57129 9.78215 5.31867 8.31536C5.97609 7.02509 7.02509 5.97609 8.31536 5.31867C9.78215 4.57129 11.7024 4.57129 15.5427 4.57129H16.457C20.2973 4.57129 22.2176 4.57129 23.6843 5.31867C24.9746 5.97609 26.0236 7.02509 26.681 8.31536C27.4284 9.78215 27.4284 11.7024 27.4284 15.5427V16.457C27.4284 20.2973 27.4284 22.2176 26.681 23.6843C26.0236 24.9746 24.9746 26.0236 23.6843 26.681C22.2176 27.4284 20.2973 27.4284 16.457 27.4284H15.5427C11.7024 27.4284 9.78215 27.4284 8.31536 26.681C7.02509 26.0236 5.97609 24.9746 5.31867 23.6843C4.57129 22.2176 4.57129 20.2973 4.57129 16.457V15.5427ZM15.5427 6.857H16.457C18.4149 6.857 19.7458 6.85879 20.7746 6.94283C21.7768 7.02471 22.2892 7.17311 22.6467 7.35525C23.5068 7.79354 24.2061 8.49288 24.6444 9.353C24.8266 9.71049 24.9751 10.2229 25.0569 11.2251C25.1409 12.2539 25.1427 13.5848 25.1427 15.5427V16.457C25.1427 18.4149 25.1409 19.7458 25.0569 20.7746C24.9751 21.7768 24.8266 22.2892 24.6444 22.6467C24.2061 23.5068 23.5068 24.2061 22.6467 24.6444C22.2892 24.8266 21.7768 24.9751 20.7746 25.0569C19.7458 25.1409 18.4149 25.1427 16.457 25.1427H15.5427C13.5848 25.1427 12.2539 25.1409 11.2251 25.0569C10.2229 24.9751 9.71049 24.8266 9.353 24.6444C8.49288 24.2061 7.79354 23.5068 7.35525 22.6467C7.17311 22.2892 7.02471 21.7768 6.94283 20.7746C6.85879 19.7458 6.857 18.4149 6.857 16.457V15.5427C6.857 13.5848 6.85879 12.2539 6.94283 11.2251C7.02471 10.2229 7.17311 9.71049 7.35525 9.353C7.79354 8.49288 8.49288 7.79354 9.353 7.35525C9.71049 7.17311 10.2229 7.02471 11.2251 6.94283C12.2539 6.85879 13.5848 6.857 15.5427 6.857Z" fill="white"/>
<defs>
<radialGradient id="paint0_radial_316_104763" cx="0" cy="0" r="1" gradientUnits="userSpaceOnUse" gradientTransform="translate(11.4286 24) rotate(-55.3758) scale(29.1653)">
<stop stop-color="#B13589"/>
<stop offset="0.79309" stop-color="#C62F94"/>
<stop offset="1" stop-color="#8A3AC8"/>
</radialGradient>
<radialGradient id="paint1_radial_316_104763" cx="0" cy="0" r="1" gradientUnits="userSpaceOnUse" gradientTransform="translate(10.2857 33.1429) rotate(-65.1363) scale(25.8219)">
<stop stop-color="#E0E8B7"/>
<stop offset="0.444662" stop-color="#FB8A2E"/>
<stop offset="0.71474" stop-color="#E2425C"/>
<stop offset="1" stop-color="#E2425C" stop-opacity="0"/>
</radialGradient>
<radialGradient id="paint2_radial_316_104763" cx="0" cy="0" r="1" gradientUnits="userSpaceOnUse" gradientTransform="translate(-1.71429 1.14286) rotate(-8.1301) scale(44.4467 9.5067)">
<stop offset="0.156701" stop-color="#406ADC"/>
<stop offset="0.467799" stop-color="#6A45BE"/>
<stop offset="1" stop-color="#6A45BE" stop-opacity="0"/>
</radialGradient>
</defs>
</svg>
