<svg width="32" height="32" viewBox="0 0 32 32" fill="none" xmlns="http://www.w3.org/2000/svg">
<g clip-path="url(#clip0_316_104761)">
<rect width="31.9999" height="32" rx="8" fill="white"/>
<path d="M27.2666 27.2666H22.5252V19.84C22.5252 18.0693 22.4933 15.7893 20.0586 15.7893C17.5893 15.7893 17.2106 17.72 17.2106 19.7093V27.2666H12.4693V11.9947H17.0213V14.0827H17.0853C18.0133 12.4987 19.7413 11.5493 21.5759 11.616C26.3812 11.616 27.2692 14.776 27.2692 18.8906L27.2666 27.2666ZM7.11997 9.90667C6.39164 9.90317 5.6941 9.61247 5.17883 9.0977C4.66357 8.58294 4.37219 7.88568 4.36798 7.15735C4.36798 5.64802 5.61065 4.40536 7.11997 4.40536C8.6293 4.40536 9.8693 5.64802 9.87196 7.15735C9.87196 8.66667 8.6293 9.90667 7.11997 9.90667ZM9.49063 27.2666H4.74398V11.9947H9.49063V27.2666ZM29.6266 3.96351e-05H2.35999C1.74173 -0.00355136 1.14703 0.236998 0.705126 0.669414C0.263223 1.10183 0.00982573 1.69117 0 2.30936V29.6906C0.00982573 30.3088 0.263223 30.8981 0.705126 31.3305C1.14703 31.763 1.74173 32.0035 2.35999 31.9999H29.6292C30.2489 32.0049 30.8455 31.7652 31.2894 31.3328C31.7334 30.9003 31.9887 30.3102 31.9999 29.6906V2.3067C31.9887 1.68757 31.7332 1.09798 31.2891 0.666407C30.8451 0.234836 30.2484 -0.00372866 29.6292 0.0027061L29.6266 3.96351e-05Z" fill="#0A66C2"/>
</g>
<defs>
<clipPath id="clip0_316_104761">
<rect width="31.9999" height="32" rx="8" fill="white"/>
</clipPath>
</defs>
</svg>
