<svg width="160" height="160" viewBox="0 0 160 160" fill="none" xmlns="http://www.w3.org/2000/svg">
<g clip-path="url(#clip0_213_3022)">
<mask id="mask0_213_3022" style="mask-type:luminance" maskUnits="userSpaceOnUse" x="0" y="0" width="160" height="160">
<path d="M0 0H160V160H0V0Z" fill="white"/>
</mask>
<g mask="url(#mask0_213_3022)">
<path d="M79.6314 125.922C38.5644 125.466 19.0114 112.901 20.9754 88.2328C23.9194 51.2318 54.8924 58.8128 65.3324 50.1678C75.7734 41.5228 60.6594 56.1008 83.9874 36.0558C99.5394 22.6918 114.736 24.4388 129.579 41.2948C143.183 57.5938 143.142 74.9968 129.458 93.5018C115.773 112.006 99.1644 122.813 79.6314 125.922Z" fill="#9CF0FD"/>
<path d="M114 126.998H52V34.998H114V126.998ZM54.445 69.413V94.849V125.998H110V38.132H54.445V69.413Z" fill="white"/>
<path d="M110 125.999H54.446V94.8499V69.4129V38.1309H110V125.999Z" fill="#047CC0"/>
<path d="M54.0447 39.1516L51.1477 36.2446C50.7957 35.8926 50.7967 35.3226 51.1487 34.9716C51.5007 34.6206 52.0707 34.6216 52.4217 34.9736L55.3187 37.8806C55.6707 38.2326 55.6697 38.8026 55.3167 39.1536C54.9657 39.5046 54.3957 39.5036 54.0447 39.1516Z" fill="#047CC0"/>
<path d="M111.422 39.1516L114.321 36.2446C114.672 35.8926 114.671 35.3226 114.319 34.9716C113.967 34.6206 113.397 34.6216 113.046 34.9736L110.147 37.8806C109.796 38.2326 109.797 38.8026 110.149 39.1536C110.501 39.5046 111.071 39.5036 111.422 39.1516Z" fill="#047CC0"/>
<path d="M35.0412 125.957H63.0002H64.8262H117.925L118.039 125.964C118.482 126.019 118.825 126.398 118.825 126.856C118.825 127.353 118.422 127.757 117.925 127.757H64.8262H63.0002H35.0412L34.9292 127.75C34.4842 127.694 34.1432 127.315 34.1432 126.856C34.1432 126.359 34.5442 125.957 35.0412 125.957Z" fill="#047CC0"/>
<path d="M121.957 125.957H126.957L127.07 125.964C127.514 126.019 127.857 126.398 127.857 126.856C127.857 127.353 127.454 127.757 126.957 127.757H121.957L121.844 127.75C121.4 127.694 121.057 127.315 121.057 126.856C121.057 126.359 121.46 125.957 121.957 125.957Z" fill="#047CC0"/>
<path d="M51.435 97.4257L32.776 83.2847L51.435 69.0537V76.4637H52.335H77.29V90.0107H51.435V97.4257Z" fill="#4AC3E2"/>
<path d="M29.8031 83.29L53.2371 65.418V74.664H77.2891V75.564V76.464H52.3361H51.4371V69.055L32.7781 83.285L51.4371 97.426V90.012H77.2891V90.912V91.812H53.2371V101.048L29.8031 83.29Z" fill="white"/>
<path d="M109.686 39V125.445L105.481 125.957L67.5185 131.502L68.7515 33.75L109.686 39Z" fill="white"/>
<g opacity="0.999999">
<path d="M109.686 38.8429V89.7269L78.1235 35.1289L109.686 38.8429Z" fill="#C5F7FC"/>
</g>
<path d="M66.627 130.894L66.626 33.7754L70 34.1724L69.989 130.773L66.627 130.894Z" fill="#6DE2FF"/>
<path d="M111 37.0009L76.8964 33.1729C76.4014 33.1149 75.9544 33.4689 75.8964 33.9619V33.9639C75.8404 34.4579 76.1914 34.9019 76.6854 34.9599L78.1254 35.1299L109.687 38.8439V89.7279V125.447L105.481 125.958L90.6834 127.758L70.0004 130.273L66.6264 130.684V127.758V125.958V33.7769L70.0004 34.1739L73.0313 34.5309C73.5243 34.5889 73.9714 34.2359 74.0303 33.7439V33.7419C74.0893 33.2489 73.7364 32.8009 73.2434 32.7429L64.8274 31.7539V125.415V125.958V127.758V128.159L64.8574 133.029L111 127.001L111.485 125.958V38.9589L111 37.0009Z" fill="#047CC0"/>
<path d="M73.8084 85.9915V80.5745C73.8084 79.7635 74.8034 77.9175 76.4984 77.8835C78.1934 77.8495 79.1904 79.0885 79.1904 80.5745V85.9915C79.1904 87.3535 78.0224 88.6725 76.4984 88.6835C74.9744 88.6945 73.8084 87.4775 73.8084 85.9915Z" fill="#6EE3FF"/>
<path d="M75.2078 84.8919V79.4749C75.2078 78.6639 76.2028 76.8179 77.8978 76.7839C79.5928 76.7499 80.5898 77.9889 80.5898 79.4749V84.8919C80.5898 86.2539 79.4218 87.5729 77.8978 87.5839C76.3738 87.5949 75.2078 86.3779 75.2078 84.8919Z" fill="#047CC0"/>
<path d="M37.2925 46.9334C39.591 46.9334 41.4521 45.0693 41.4521 42.7714C41.4521 40.4735 39.591 38.6094 37.2925 38.6094C34.9941 38.6094 33.1329 40.4735 33.1329 42.7714C33.1329 45.0693 34.9941 46.9334 37.2925 46.9334ZM37.2925 44.5613C36.3089 44.5613 35.5098 43.761 35.5098 42.7714C35.5098 41.7818 36.3089 40.9815 37.2925 40.9815C38.2767 40.9815 39.0758 41.7818 39.0758 42.7714C39.0758 43.761 38.2767 44.5613 37.2925 44.5613Z" fill="#6DE1FF"/>
<path d="M122.411 116.647L123.725 117.772L125.567 115.619L127.723 117.465L128.848 116.15L126.693 114.305L128.535 112.153L127.221 111.027L125.379 113.179L123.223 111.335L122.098 112.649L124.253 114.495L122.411 116.647Z" fill="#047CC0"/>
</g>
</g>
<defs>
<clipPath id="clip0_213_3022">
<rect width="160" height="160" fill="white" transform="matrix(-1 0 0 1 160 0)"/>
</clipPath>
</defs>
</svg>
