<svg width="24" height="24" viewBox="0 0 24 24" fill="none" xmlns="http://www.w3.org/2000/svg">
<g id="Frame">
<g id="Group">
<path id="Vector" d="M5.00657 16.478C4.09913 15.6688 3.45896 14.6029 3.17086 13.4217C2.88277 12.2404 2.96035 10.9995 3.39332 9.86338C3.82629 8.72722 4.59423 7.74941 5.59539 7.05949C6.59656 6.36957 7.7837 6.00009 8.99957 6H19.9996M14.9996 15.5V18.5C14.9996 18.8978 15.1576 19.2794 15.4389 19.5607C15.7202 19.842 16.1017 20 16.4996 20C16.8974 20 17.2789 19.842 17.5602 19.5607C17.8415 19.2794 17.9996 18.8978 17.9996 18.5V15.5C17.9996 15.1022 17.8415 14.7206 17.5602 14.4393C17.2789 14.158 16.8974 14 16.4996 14C16.1017 14 15.7202 14.158 15.4389 14.4393C15.1576 14.7206 14.9996 15.1022 14.9996 15.5Z" stroke="white" stroke-width="2" stroke-linecap="round" stroke-linejoin="round"/>
<path id="Vector_2" d="M17 9L20 6L17 3M12 14H10C9.73478 14 9.48043 14.1054 9.29289 14.2929C9.10536 14.4804 9 14.7348 9 15V19C9 19.2652 9.10536 19.5196 9.29289 19.7071C9.48043 19.8946 9.73478 20 10 20H11C11.2652 20 11.5196 19.8946 11.7071 19.7071C11.8946 19.5196 12 19.2652 12 19V18C12 17.7348 11.8946 17.4804 11.7071 17.2929C11.5196 17.1054 11.2652 17 11 17H9" stroke="white" stroke-width="2" stroke-linecap="round" stroke-linejoin="round"/>
</g>
</g>
</svg>
