<svg width="16" height="16" viewBox="0 0 16 16" fill="none" xmlns="http://www.w3.org/2000/svg">
<rect y="0.00354004" width="16" height="16" fill="white" fill-opacity="0.01"/>
<path fill-rule="evenodd" clip-rule="evenodd" d="M8.36525 0.821791C8.27175 0.728136 8.14256 0.670166 7.99982 0.670166C7.85693 0.670166 7.72774 0.728136 7.63423 0.821791L0.817715 7.63861C0.6161 7.84037 0.6161 8.16711 0.817715 8.36888C0.918598 8.46976 1.0508 8.5202 1.18285 8.5202C1.31505 8.5202 1.4471 8.46976 1.54799 8.36888L7.48336 2.43336V14.8207C7.48336 15.1057 7.71449 15.337 7.99982 15.337C8.285 15.337 8.51613 15.1057 8.51613 14.8207V2.43336L14.4516 8.36888C14.6534 8.57065 14.9802 8.57065 15.1819 8.36888C15.3837 8.16711 15.3837 7.84037 15.1819 7.63861L8.36525 0.821791Z" fill="white"/>
</svg>
