<svg width="18" height="18" viewBox="0 0 18 18" fill="none" xmlns="http://www.w3.org/2000/svg">
<rect y="0.00177002" width="18" height="18" fill="white" fill-opacity="0.01"/>
<path fill-rule="evenodd" clip-rule="evenodd" d="M8.9743 2.66385C10.7684 2.66385 12.2279 4.12318 12.2279 5.91723C12.2279 7.71128 10.7684 9.17095 8.9743 9.17095C7.18025 9.17095 5.72058 7.71128 5.72058 5.91723C5.72058 4.12318 7.18025 2.66385 8.9743 2.66385ZM8.97436 10.3328C11.4092 10.3328 13.3898 8.3519 13.3898 5.9172C13.3898 3.48233 11.4092 1.50177 8.97436 1.50177C6.53949 1.50177 4.55859 3.48233 4.55859 5.9172C4.55859 8.3519 6.53949 10.3328 8.97436 10.3328Z" fill="#121212"/>
<path fill-rule="evenodd" clip-rule="evenodd" d="M6.28862 12.2696H11.7116C13.928 12.2696 15.7649 13.9256 16.05 16.0653H1.95044C2.23553 13.9256 4.07227 12.2696 6.28862 12.2696ZM1.33102 17.2272H16.6691C16.9901 17.2272 17.2502 16.967 17.2502 16.6463C17.2502 13.5923 14.7655 11.1075 11.7115 11.1075H6.28851C3.2345 11.1075 0.75 13.5923 0.75 16.6463C0.75 16.967 1.01002 17.2272 1.33102 17.2272Z" fill="#121212"/>
</svg>
