<svg width="20" height="21" viewBox="0 0 20 21" fill="none" xmlns="http://www.w3.org/2000/svg">
<g id="Frame">
<g id="Group">
<path id="Vector" d="M7.49107 7.44433V14.1543C7.49152 14.2918 7.53039 14.4264 7.60328 14.543C7.67617 14.6595 7.78019 14.7534 7.90359 14.8139C8.02699 14.8745 8.16486 14.8994 8.30165 14.8858C8.43844 14.8721 8.5687 14.8206 8.67773 14.7368L13.3236 11.1235C13.4156 11.0518 13.4893 10.9592 13.5386 10.8535C13.5879 10.7477 13.6113 10.6317 13.607 10.5151C13.6027 10.3985 13.5708 10.2846 13.5138 10.1827C13.4568 10.0809 13.3765 9.99404 13.2794 9.92933L8.63273 6.83183C8.52186 6.75864 8.39325 6.71679 8.26053 6.71073C8.12781 6.70466 7.99592 6.7346 7.87883 6.79738C7.76174 6.86015 7.6638 6.95342 7.59539 7.06731C7.52698 7.1812 7.49148 7.31148 7.49107 7.44433Z" stroke="#222222" stroke-width="1.25" stroke-linecap="round" stroke-linejoin="round"/>
<path id="Vector_2" d="M12.7077 3.0918H7.29102C4.52959 3.0918 2.29102 5.33037 2.29102 8.0918V13.5085C2.29102 16.2699 4.52959 18.5085 7.29102 18.5085H12.7077C15.4691 18.5085 17.7077 16.2699 17.7077 13.5085V8.0918C17.7077 5.33037 15.4691 3.0918 12.7077 3.0918Z" stroke="#222222" stroke-width="1.25"/>
</g>
</g>
</svg>
