<svg width="32" height="32" viewBox="0 0 32 32" fill="none" xmlns="http://www.w3.org/2000/svg">
<rect width="32" height="32" rx="8" fill="white"/>
<path fill-rule="evenodd" clip-rule="evenodd" d="M22.9993 24.8742H9.87491C8.83949 24.8742 8 24.0347 8 22.9993V9.87491C8 8.83949 8.83949 8 9.87491 8H22.9993C24.0347 8 24.8742 8.83949 24.8742 9.87491V22.9993C24.8742 24.0347 24.0347 24.8742 22.9993 24.8742Z" fill="white"/>
<path d="M24.6783 24.6688H19.5059L8.26367 8.59814H13.436L24.6783 24.6688ZM20.1222 23.306H22.1817L12.8197 9.96094H10.7603L20.1222 23.306Z" fill="black"/>
<path d="M9.89943 24.6688L15.6873 17.9641L14.9304 16.9604L8.25781 24.6688H9.89943Z" fill="black"/>
<path d="M16.7969 14.8022L17.5241 15.838L23.7764 8.59814H22.1693L16.7969 14.8022Z" fill="black"/>
</svg>
